<svg width="24" height="24" viewBox="0 0 24 24" fill="none" xmlns="http://www.w3.org/2000/svg">
<path d="M20.25 2H8.25C7.95163 2 7.66548 2.11853 7.4545 2.3295C7.24353 2.54048 7.125 2.82663 7.125 3.125V6.5H3.75C3.45163 6.5 3.16548 6.61853 2.9545 6.8295C2.74353 7.04048 2.625 7.32663 2.625 7.625V19.625C2.625 19.9234 2.74353 20.2095 2.9545 20.4205C3.16548 20.6315 3.45163 20.75 3.75 20.75H15.75C16.0484 20.75 16.3345 20.6315 16.5455 20.4205C16.7565 20.2095 16.875 19.9234 16.875 19.625V16.25H20.25C20.5484 16.25 20.8345 16.1315 21.0455 15.9205C21.2565 15.7095 21.375 15.4234 21.375 15.125V3.125C21.375 2.82663 21.2565 2.54048 21.0455 2.3295C20.8345 2.11853 20.5484 2 20.25 2ZM15 19H4.5V8.375H15V19ZM19.5 14.375H16.875V7.625C16.875 7.32663 16.7565 7.04048 16.5455 6.8295C16.3345 6.61853 16.0484 6.5 15.75 6.5H9V3.875H19.5V14.375Z" fill="#1C98CD"/>
</svg>
