<svg width="24" height="24" viewBox="0 0 24 24" fill="none" xmlns="http://www.w3.org/2000/svg">
<path d="M16.934 8.96499C16.6663 6.95387 15.6446 5.11952 14.0757 3.8331C12.5069 2.54667 10.5079 1.90422 8.48329 2.03573C6.4587 2.16724 4.55964 3.06289 3.17036 4.54146C1.78107 6.02004 1.0053 7.97114 1 9.99999C1 11.892 1.657 13.631 2.756 15.001C3.564 16.01 4 17.125 4 18.306V22H13L13.001 19H15C15.5304 19 16.0391 18.7893 16.4142 18.4142C16.7893 18.0391 17 17.5304 17 17V14.071L18.96 13.231C19.302 13.085 19.332 12.737 19.184 12.504L16.934 8.96399V8.96499ZM3 9.99999C2.99846 8.47521 3.57751 7.00705 4.61947 5.89383C5.66144 4.7806 7.08815 4.10584 8.6097 4.00666C10.1312 3.90747 11.6335 4.3913 12.8112 5.35983C13.9888 6.32835 14.7536 7.70892 14.95 9.22099L15.007 9.66299L16.55 12.088L15 12.752V17H11.002L11 20H6V18.306C6 16.667 5.409 15.114 4.315 13.75C3.46101 12.687 2.99692 11.3635 3 9.99999ZM21.154 18.102L19.489 16.992C20.4766 15.5147 21.0026 13.777 21 12C21.0031 10.2227 20.4775 8.48468 19.49 7.00699L21.154 5.89699C22.3612 7.70311 23.0038 9.82756 23 12C23 14.258 22.32 16.356 21.154 18.102Z" fill="#1C98CD"/>
</svg>
