<svg width="24" height="24" viewBox="0 0 24 24" fill="none" xmlns="http://www.w3.org/2000/svg">
<path d="M10.6039 4.79224H4.68975C4.2416 4.79224 3.81181 4.97026 3.49492 5.28715C3.17803 5.60404 3 6.03384 3 6.48199V18.3102C3 18.7584 3.17803 19.1882 3.49492 19.5051C3.81181 19.822 4.2416 20 4.68975 20H16.518C16.9661 20 17.3959 19.822 17.7128 19.5051C18.0297 19.1882 18.2077 18.7584 18.2077 18.3102V12.3961" stroke="#1C98CD" stroke-width="2" stroke-linecap="round" stroke-linejoin="round"/>
<path d="M16.9404 3.52494C17.2765 3.18883 17.7324 3 18.2077 3C18.6831 3 19.1389 3.18883 19.4751 3.52494C19.8112 3.86105 20 4.31692 20 4.79225C20 5.26759 19.8112 5.72345 19.4751 6.05957L11.4487 14.0859L8.06924 14.9308L8.91412 11.5513L16.9404 3.52494Z" stroke="#1C98CD" stroke-width="2" stroke-linecap="round" stroke-linejoin="round"/>
</svg>
