<svg width="25" height="24" viewBox="0 0 25 24" fill="none" xmlns="http://www.w3.org/2000/svg">
<path d="M11.2386 17H13.2614V11H11.2386V17ZM12.25 9C12.5365 9 12.7769 8.904 12.9711 8.712C13.1653 8.52 13.262 8.28267 13.2614 8C13.2614 7.71667 13.1643 7.479 12.9701 7.287C12.7759 7.095 12.5359 6.99933 12.25 7C11.9634 7 11.7231 7.096 11.5289 7.288C11.3347 7.48 11.238 7.71733 11.2386 8C11.2386 8.28333 11.3357 8.521 11.5299 8.713C11.7241 8.905 11.9641 9.00067 12.25 9ZM12.25 22C10.8509 22 9.53616 21.7373 8.30567 21.212C7.07518 20.6867 6.00482 19.9743 5.09459 19.075C4.18436 18.175 3.46394 17.1167 2.93331 15.9C2.40268 14.6833 2.13703 13.3833 2.13635 12C2.13635 10.6167 2.402 9.31667 2.93331 8.1C3.46461 6.88333 4.18504 5.825 5.09459 4.925C6.00482 4.025 7.07518 3.31267 8.30567 2.788C9.53616 2.26333 10.8509 2.00067 12.25 2C13.649 2 14.9638 2.26267 16.1943 2.788C17.4248 3.31333 18.4952 4.02567 19.4054 4.925C20.3156 5.825 21.0364 6.88333 21.5677 8.1C22.099 9.31667 22.3643 10.6167 22.3636 12C22.3636 13.3833 22.098 14.6833 21.5667 15.9C21.0354 17.1167 20.3149 18.175 19.4054 19.075C18.4952 19.975 17.4248 20.6877 16.1943 21.213C14.9638 21.7383 13.649 22.0007 12.25 22ZM12.25 20C14.5087 20 16.4219 19.225 17.9895 17.675C19.5571 16.125 20.3409 14.2333 20.3409 12C20.3409 9.76667 19.5571 7.875 17.9895 6.325C16.4219 4.775 14.5087 4 12.25 4C9.99128 4 8.07811 4.775 6.5105 6.325C4.94289 7.875 4.15908 9.76667 4.15908 12C4.15908 14.2333 4.94289 16.125 6.5105 17.675C8.07811 19.225 9.99128 20 12.25 20Z" fill="#1C98CD"/>
</svg>
