<svg width="24" height="24" viewBox="0 0 24 24" fill="none" xmlns="http://www.w3.org/2000/svg">
<path d="M6.6 12.8889C4.611 12.8889 3 14.48 3 16.4444C3 18.4089 4.611 20 6.6 20C8.589 20 10.2 18.4089 10.2 16.4444C10.2 14.48 8.589 12.8889 6.6 12.8889ZM6.6 18.2222C5.61 18.2222 4.8 17.4222 4.8 16.4444C4.8 15.4667 5.61 14.6667 6.6 14.6667C7.59 14.6667 8.4 15.4667 8.4 16.4444C8.4 17.4222 7.59 18.2222 6.6 18.2222ZM6.6 4C4.611 4 3 5.59111 3 7.55556C3 9.52 4.611 11.1111 6.6 11.1111C8.589 11.1111 10.2 9.52 10.2 7.55556C10.2 5.59111 8.589 4 6.6 4ZM12 5.77778H21V7.55556H12V5.77778ZM12 18.2222V16.4444H21V18.2222H12ZM12 11.1111H21V12.8889H12V11.1111Z" fill="#1C98CD"/>
</svg>
